<svg width="120" height="50" viewBox="0 0 120 50" fill="none" xmlns="http://www.w3.org/2000/svg">
<path d="M71.5141 13.7351C71.5141 21.2702 71.5141 28.8053 71.5141 36.3404C73.1909 36.344 74.8677 36.35 76.5432 36.35C77.273 36.35 77.3054 36.3164 77.3066 35.5657C77.309 33.6564 77.3066 31.7484 77.3078 29.8391C77.309 29.0848 77.3318 29.062 78.0699 29.0608C80.4237 29.0596 82.7786 29.0608 85.1323 29.0596C85.9604 29.0596 85.9628 29.0572 85.9628 28.2549C85.964 26.92 85.9652 25.5864 85.9628 24.2516C85.9616 23.4877 85.9424 23.4685 85.1527 23.4673C82.7642 23.4649 80.3768 23.4685 77.9883 23.4649C77.3702 23.4637 77.3114 23.4049 77.3078 22.8017C77.3018 21.8723 77.303 20.944 77.3066 20.0146C77.3102 19.3753 77.3546 19.3322 78.0099 19.331C80.4993 19.3286 82.9898 19.3082 85.4779 19.343C86.1813 19.3526 86.767 19.2014 87.2867 18.7325C87.4536 18.5826 87.66 18.3044 87.8664 18.4039C88.0813 18.5071 87.9589 18.8345 87.9589 19.0611C87.9649 24.5683 87.9625 30.0742 87.9637 35.5813C87.9637 36.3224 87.9925 36.3488 88.7378 36.35C90.1601 36.3524 91.5836 36.3524 93.0059 36.35C93.7489 36.3488 93.7753 36.3224 93.7765 35.5765C93.7789 33.684 93.7753 31.7927 93.7789 29.9003C93.7801 29.297 93.8437 29.2383 94.4559 29.2323C95.1832 29.2239 95.9106 29.2359 96.6379 29.1663C100.099 28.8353 102.603 27.2283 103.8 23.8583C103.842 23.7407 103.827 23.5537 104.003 23.5489C104.13 23.5453 104.174 23.6964 104.237 23.7935C105.115 25.1511 106.386 26.0158 107.84 26.6514C109.005 27.1611 110.233 27.4969 111.435 27.9083C111.917 28.0738 112.383 28.2692 112.804 28.5619C113.137 28.7933 113.293 29.098 113.289 29.5069C113.281 30.2816 112.924 30.7206 111.971 30.9161C110.453 31.2267 108.942 31.1355 107.451 30.7014C106.599 30.4531 105.828 30.025 105.034 29.6472C104.77 29.5213 104.563 29.4769 104.446 29.8367C103.97 31.2986 103.485 32.757 102.998 34.2153C102.904 34.4947 103.008 34.653 103.251 34.7886C104.773 35.6365 106.368 36.2577 108.114 36.4772C108.616 36.5407 109.131 36.4855 109.622 36.6427C110.198 36.6427 110.775 36.6427 111.349 36.6427C112.108 36.4879 112.888 36.4592 113.64 36.2529C116.507 35.4686 118.427 33.78 118.948 30.7458C118.988 30.5143 119.031 30.284 119.073 30.0526C119.073 29.7144 119.073 29.3774 119.073 29.0392C119.046 28.9253 119.005 28.8125 118.993 28.6962C118.798 26.8037 117.885 25.3262 116.383 24.1881C115.442 23.4745 114.368 23.0308 113.271 22.6182C112.086 22.1709 110.836 21.8962 109.718 21.2726C109.238 21.004 108.93 20.6442 109.027 20.0469C109.105 19.5732 109.423 19.277 110.052 19.1415C110.872 18.9652 111.696 18.9856 112.526 19.0683C113.852 19.2014 115.029 19.7531 116.188 20.3528C116.537 20.5339 116.739 20.4883 116.866 20.0877C117.316 18.6726 117.783 17.2634 118.25 15.853C118.34 15.5808 118.337 15.3745 118.035 15.2258C117.078 14.7581 116.149 14.2268 115.103 13.975C114.431 13.8131 113.751 13.6775 113.074 13.53C111.99 13.53 110.907 13.53 109.822 13.53C109.376 13.6296 108.927 13.7135 108.487 13.8299C106.233 14.4223 104.485 15.6192 103.652 17.8966C103.632 17.9518 103.577 17.995 103.497 18.0921C103.127 17.4373 102.769 16.8269 102.29 16.304C100.596 14.4607 98.4251 13.7435 95.9934 13.7387C87.8388 13.7243 79.6771 13.7351 71.5141 13.7351ZM93.7861 21.4777C93.7861 20.9212 93.7885 20.3648 93.7849 19.8095C93.7825 19.5061 93.8989 19.3262 94.229 19.3322C95.1064 19.3478 95.9862 19.2698 96.86 19.4209C97.3101 19.4989 97.7242 19.6536 97.981 20.0398C98.4911 20.8061 98.4623 21.6468 98.1634 22.4647C97.897 23.1963 97.2477 23.4889 96.5203 23.5417C95.7809 23.5956 95.0344 23.5656 94.2914 23.5764C93.9241 23.5824 93.7777 23.3989 93.7837 23.0452C93.7921 22.5235 93.7849 22.0006 93.7861 21.4777Z" fill="#F2F2F2"/>
<path d="M24.7478 26.7354C21.8036 29.6772 21.8036 34.4456 24.7478 37.3874L17.6807 30.3261C14.7364 27.3842 14.7364 22.6158 17.6807 19.674L28.1889 9.17426L28.0797 9.37814C31.0239 6.43629 35.7962 6.43629 38.7404 9.37814L40.3415 10.978" fill="url(#paint0_linear_1109_63)"/>
<path d="M63.3048 30.3248L61.9906 31.638L51.702 41.9183C48.7841 43.7892 44.8581 43.4498 42.3063 40.9001L40.2923 38.8877L44.7945 34.4707L44.7969 34.4683C45.1582 34.2177 45.5014 33.9311 45.8231 33.6096L49.1106 30.3248C49.4263 30.0094 49.7095 29.6712 49.9568 29.3174L54.513 24.7649L56.2017 23.0775C58.8387 20.4427 59.1135 16.3411 57.0251 13.3993L63.3036 19.6728C66.2491 22.6158 66.2491 27.3842 63.3048 30.3248Z" fill="url(#paint1_linear_1109_63)"/>
<path d="M38.7392 9.37931C35.795 6.43746 31.0227 6.43746 28.0785 9.37931L28.1877 9.17543L35.1624 2.20639C38.1067 -0.735462 42.8789 -0.735462 45.8231 2.20639L54.8394 11.3174L57.0263 13.4005C59.1147 16.3424 58.8399 20.4439 56.2029 23.0787L54.5142 24.7661" fill="url(#paint2_linear_1109_63)"/>
<path d="M51.702 41.9195L45.8231 47.7936C42.8789 50.7354 38.1066 50.7354 35.1624 47.7936L33.5181 46.1506L33.206 45.8388L24.7478 37.3874C21.8036 34.4456 21.8036 29.6772 24.7478 26.7353L26.4341 25.0504L31.24 29.8451L42.3051 40.9013C44.8581 43.4498 48.7841 43.7904 51.702 41.9195Z" fill="url(#paint3_linear_1109_63)"/>
<path d="M9.07364 26.6826C6.48469 29.2707 6.15702 33.2631 8.09303 36.2061L2.20817 30.3248C-0.736057 27.383 -0.736057 22.6146 2.20817 19.6728L19.6899 2.20639C22.6341 -0.735462 27.4064 -0.735462 30.3506 2.20639L31.9949 3.84941L27.3055 8.53381C27.0883 8.70651 26.8783 8.8948 26.6754 9.09628L9.07364 26.6826Z" fill="url(#paint4_linear_1109_63)"/>
<path d="M26.6754 9.09628C26.8783 8.8936 27.0883 8.70651 27.3055 8.53381L16.1564 19.674C13.2121 22.6158 13.2121 27.3842 16.1564 30.326L22.3569 36.5215C22.3593 36.5251 22.3605 36.5275 22.3629 36.5287C22.5873 36.8357 22.8406 37.1308 23.1179 37.4078L31.9313 46.2142L30.3506 47.7936C27.4064 50.7355 22.6341 50.7355 19.6899 47.7936L8.09424 36.2061C6.15822 33.2631 6.48589 29.2707 9.07485 26.6826" fill="url(#paint5_linear_1109_63)"/>
<path d="M48.9258 30.5119L45.6383 33.7968C42.694 36.7386 37.9218 36.7386 34.9776 33.7968L31.6901 30.5119C28.7458 27.5701 28.7458 22.8017 31.6901 19.8599L34.9776 16.575C37.9218 13.6332 42.694 13.6332 45.6383 16.575L48.9258 19.8599C51.87 22.8017 51.87 27.5701 48.9258 30.5119Z" fill="#F2F2F2"/>
<path d="M37.1584 27.7943L28.7855 33.0472H28.651C27.1987 33.0472 26.0189 31.8695 26.0189 30.4172V30.4148C26.0189 28.9636 27.1975 27.7847 28.651 27.7847H36.964C37.03 27.7871 37.0948 27.7883 37.1584 27.7943Z" fill="white"/>
<path d="M52.673 17.2226V17.225C52.673 18.6761 51.4955 19.855 50.0408 19.855H41.8611L50.234 14.6022C51.5975 14.6993 52.673 15.8362 52.673 17.2226Z" fill="white"/>
<defs>
<linearGradient id="paint0_linear_1109_63" x1="15.4728" y1="22.2797" x2="40.3403" y2="22.2797" gradientUnits="userSpaceOnUse">
<stop stop-color="#999999"/>
<stop offset="1" stop-color="#F2F2F2"/>
</linearGradient>
<linearGradient id="paint1_linear_1109_63" x1="40.292" y1="28.2535" x2="65.5128" y2="28.2535" gradientUnits="userSpaceOnUse">
<stop stop-color="#999999"/>
<stop offset="1" stop-color="#F2F2F2"/>
</linearGradient>
<linearGradient id="paint2_linear_1109_63" x1="28.0788" y1="12.3825" x2="58.4104" y2="12.3825" gradientUnits="userSpaceOnUse">
<stop stop-color="#999999"/>
<stop offset="1" stop-color="#F2F2F2"/>
</linearGradient>
<linearGradient id="paint3_linear_1109_63" x1="22.5399" y1="37.5244" x2="51.7017" y2="37.5244" gradientUnits="userSpaceOnUse">
<stop stop-color="#999999"/>
<stop offset="1" stop-color="#F2F2F2"/>
</linearGradient>
<linearGradient id="paint4_linear_1109_63" x1="28.5462" y1="17.4103" x2="9.08062" y2="18.527" gradientUnits="userSpaceOnUse">
<stop stop-color="#CCCCCC"/>
<stop offset="1" stop-color="white"/>
</linearGradient>
<linearGradient id="paint5_linear_1109_63" x1="9.61565" y1="29.9307" x2="28.2134" y2="29.1861" gradientUnits="userSpaceOnUse">
<stop stop-color="#CCCCCC"/>
<stop offset="1" stop-color="white"/>
</linearGradient>
</defs>
</svg>
