<svg width="120" height="50" viewBox="0 0 120 50" fill="none" xmlns="http://www.w3.org/2000/svg">
<path d="M72.0718 13.7351C72.0718 21.2702 72.0718 28.8053 72.0718 36.3404C73.7533 36.344 75.4347 36.35 77.115 36.35C77.8468 36.35 77.8793 36.3164 77.8805 35.5657C77.8829 33.6564 77.8805 31.7484 77.8817 29.8391C77.8829 29.0848 77.9058 29.062 78.646 29.0608C81.0063 29.0596 83.3678 29.0608 85.7281 29.0596C86.5586 29.0596 86.561 29.0572 86.561 28.2548C86.5622 26.92 86.5634 25.5864 86.561 24.2516C86.5598 23.4877 86.5406 23.4685 85.7486 23.4673C83.3534 23.4649 80.9594 23.4685 78.5642 23.4649C77.9443 23.4637 77.8853 23.4049 77.8817 22.8017C77.8757 21.8723 77.8769 20.944 77.8805 20.0146C77.8841 19.3753 77.9286 19.3322 78.5858 19.331C81.0821 19.3286 83.5797 19.3082 86.0748 19.343C86.7801 19.3526 87.3675 19.2014 87.8886 18.7325C88.0559 18.5826 88.263 18.3044 88.47 18.4039C88.6854 18.5071 88.5627 18.8345 88.5627 19.0611C88.5687 24.5682 88.5663 30.0742 88.5675 35.5813C88.5675 36.3224 88.5964 36.3488 89.3438 36.35C90.7701 36.3524 92.1976 36.3524 93.6239 36.35C94.369 36.3488 94.3954 36.3224 94.3966 35.5765C94.399 33.684 94.3954 31.7927 94.399 29.9003C94.4002 29.297 94.464 29.2383 95.0779 29.2323C95.8073 29.2239 96.5367 29.2359 97.2661 29.1663C100.737 28.8353 103.248 27.2283 104.448 23.8583C104.49 23.7407 104.476 23.5537 104.652 23.5489C104.779 23.5453 104.824 23.6964 104.886 23.7935C105.767 25.1511 107.042 26.0158 108.5 26.6514C109.668 27.1611 110.9 27.4969 112.104 27.9083C112.588 28.0738 113.055 28.2692 113.478 28.5619C113.811 28.7933 113.968 29.0979 113.964 29.5069C113.956 30.2816 113.598 30.7206 112.642 30.9161C111.12 31.2267 109.604 31.1355 108.11 30.7014C107.255 30.4531 106.482 30.025 105.685 29.6472C105.421 29.5213 105.214 29.4769 105.096 29.8367C104.619 31.2986 104.133 32.757 103.644 34.2153C103.55 34.4947 103.654 34.653 103.898 34.7886C105.424 35.6364 107.024 36.2577 108.774 36.4771C109.278 36.5407 109.795 36.4855 110.287 36.6426C110.865 36.6426 111.442 36.6426 112.019 36.6426C112.78 36.4879 113.562 36.4592 114.315 36.2529C117.191 35.4685 119.117 33.78 119.639 30.7458C119.679 30.5143 119.722 30.284 119.764 30.0526C119.764 29.7144 119.764 29.3774 119.764 29.0392C119.737 28.9253 119.696 28.8125 119.684 28.6962C119.489 26.8037 118.573 25.3262 117.067 24.1881C116.123 23.4745 115.046 23.0308 113.946 22.6182C112.758 22.1709 111.504 21.8962 110.383 21.2726C109.902 21.004 109.592 20.6442 109.69 20.0469C109.768 19.5732 110.087 19.277 110.718 19.1415C111.54 18.9652 112.367 18.9856 113.198 19.0683C114.528 19.2014 115.709 19.7531 116.871 20.3528C117.221 20.5339 117.423 20.4883 117.551 20.0877C118.002 18.6726 118.47 17.2634 118.939 15.853C119.029 15.5808 119.026 15.3745 118.723 15.2258C117.764 14.7581 116.832 14.2268 115.783 13.975C115.109 13.8131 114.427 13.6775 113.749 13.53C112.662 13.53 111.575 13.53 110.487 13.53C110.04 13.6296 109.59 13.7135 109.148 13.8299C106.888 14.4223 105.135 15.6192 104.3 17.8966C104.28 17.9518 104.224 17.995 104.145 18.0921C103.773 17.4373 103.414 16.8269 102.934 16.304C101.236 14.4607 99.0583 13.7435 96.6197 13.7387C88.4423 13.7243 80.2577 13.7351 72.0718 13.7351ZM94.4063 21.4777C94.4063 20.9212 94.4087 20.3648 94.4051 19.8095C94.4027 19.5061 94.5194 19.3262 94.8504 19.3322C95.7303 19.3478 96.6125 19.2698 97.4887 19.4209C97.9401 19.4989 98.3554 19.6536 98.6129 20.0397C99.1245 20.8061 99.0956 21.6468 98.7959 22.4647C98.5287 23.1963 97.8775 23.4889 97.1481 23.5417C96.4067 23.5956 95.658 23.5656 94.913 23.5764C94.5447 23.5824 94.3978 23.3989 94.4039 23.0452C94.4123 22.5235 94.4051 22.0006 94.4063 21.4777Z" fill="#115C99"/>
<path d="M24.8169 26.7354C21.8644 29.6772 21.8644 34.4456 24.8169 37.3874L17.73 30.326C14.7775 27.3842 14.7775 22.6158 17.73 19.674L28.2677 9.17426L28.1582 9.37814C31.1107 6.43629 35.8963 6.43629 38.8488 9.37814L40.4544 10.978" fill="url(#paint0_linear_1104_69)"/>
<path d="M63.4821 30.3248L62.1641 31.638L51.8467 41.9183C48.9207 43.7892 44.9836 43.4498 42.4247 40.9001L40.405 38.8877L44.9198 34.4707L44.9222 34.4683C45.2845 34.2177 45.6288 33.9311 45.9513 33.6096L49.2481 30.3248C49.5646 30.0094 49.8487 29.6712 50.0966 29.3174L54.6656 24.7649L56.3591 23.0775C59.0034 20.4427 59.2791 16.3411 57.1848 13.3993L63.4809 19.6728C66.4346 22.6158 66.4346 27.3842 63.4821 30.3248Z" fill="url(#paint1_linear_1104_69)"/>
<path d="M38.8476 9.37931C35.8951 6.43746 31.1095 6.43746 28.157 9.37931L28.2665 9.17543L35.2608 2.20638C38.2133 -0.735461 42.9989 -0.735461 45.9514 2.20638L54.993 11.3174L57.186 13.4005C59.2803 16.3424 59.0047 20.4439 56.3603 23.0787L54.6668 24.7661" fill="url(#paint2_linear_1104_69)"/>
<path d="M51.8467 41.9195L45.9514 47.7936C42.9989 50.7354 38.2132 50.7354 35.2608 47.7936L33.6118 46.1506L33.2989 45.8388L24.8169 37.3874C21.8644 34.4455 21.8644 29.6772 24.8169 26.7353L26.508 25.0504L31.3273 29.8451L42.4235 40.9013C44.9836 43.4498 48.9207 43.7904 51.8467 41.9195Z" fill="url(#paint3_linear_1104_69)"/>
<g opacity="0.7">
<path opacity="0.7" d="M9.0991 26.6832C6.50288 29.2713 6.17429 33.2637 8.11574 36.2067L2.21437 30.3254C-0.738123 27.3836 -0.738123 22.6152 2.21437 19.6734L19.7452 2.20699C22.6977 -0.734851 27.4833 -0.734851 30.4358 2.20699L32.0847 3.85001L27.3822 8.53442C27.1643 8.70712 26.9537 8.89541 26.7503 9.09689L9.0991 26.6832Z" fill="url(#paint4_linear_1104_69)"/>
<path opacity="0.7" d="M26.7499 9.09628C26.9533 8.8936 27.164 8.70651 27.3818 8.53381L16.2013 19.674C13.2489 22.6158 13.2489 27.3842 16.2013 30.326L22.4193 36.5215C22.4217 36.5251 22.4229 36.5275 22.4253 36.5287C22.6504 36.8357 22.9043 37.1308 23.1824 37.4078L32.0206 46.2142L30.4354 47.7936C27.4829 50.7355 22.6973 50.7355 19.7448 47.7936L8.1166 36.2061C6.17515 33.2631 6.50374 29.2707 9.09996 26.6826" fill="url(#paint5_linear_1104_69)"/>
</g>
<path d="M49.0627 30.5119L45.766 33.7968C42.8135 36.7386 38.0279 36.7386 35.0754 33.7968L31.7786 30.5119C28.8261 27.5701 28.8261 22.8017 31.7786 19.8599L35.0754 16.575C38.0279 13.6332 42.8135 13.6332 45.766 16.575L49.0627 19.8599C52.0152 22.8017 52.0152 27.5701 49.0627 30.5119Z" fill="#73A9D9"/>
<path d="M37.2624 27.7944L28.8659 33.0473H28.7311C27.2747 33.0473 26.0915 31.8696 26.0915 30.4172V30.4148C26.0915 28.9637 27.2735 27.7848 28.7311 27.7848H37.0674C37.1336 27.7872 37.1986 27.7884 37.2624 27.7944Z" fill="white"/>
<path d="M52.8204 17.2227V17.2251C52.8204 18.6762 51.6396 19.8551 50.1809 19.8551H41.9781L50.3746 14.6022C51.742 14.6994 52.8204 15.8363 52.8204 17.2227Z" fill="white"/>
<defs>
<linearGradient id="paint0_linear_1104_69" x1="15.5159" y1="22.2797" x2="40.4532" y2="22.2797" gradientUnits="userSpaceOnUse">
<stop stop-color="#115C99"/>
<stop offset="1" stop-color="#73A9D9"/>
</linearGradient>
<linearGradient id="paint1_linear_1104_69" x1="40.4047" y1="28.2535" x2="65.6963" y2="28.2535" gradientUnits="userSpaceOnUse">
<stop stop-color="#115C99"/>
<stop offset="1" stop-color="#73A9D9"/>
</linearGradient>
<linearGradient id="paint2_linear_1104_69" x1="28.1573" y1="12.3825" x2="58.574" y2="12.3825" gradientUnits="userSpaceOnUse">
<stop stop-color="#115C99"/>
<stop offset="1" stop-color="#73A9D9"/>
</linearGradient>
<linearGradient id="paint3_linear_1104_69" x1="22.6029" y1="37.5244" x2="51.8464" y2="37.5244" gradientUnits="userSpaceOnUse">
<stop stop-color="#115C99"/>
<stop offset="1" stop-color="#73A9D9"/>
</linearGradient>
<linearGradient id="paint4_linear_1104_69" x1="28.6263" y1="17.4109" x2="9.10646" y2="18.5339" gradientUnits="userSpaceOnUse">
<stop stop-color="#666666"/>
<stop offset="1"/>
</linearGradient>
<linearGradient id="paint5_linear_1104_69" x1="9.64228" y1="29.9307" x2="28.292" y2="29.182" gradientUnits="userSpaceOnUse">
<stop stop-color="#666666"/>
<stop offset="1"/>
</linearGradient>
</defs>
</svg>
