<svg width="510" height="495" viewBox="0 0 510 495" fill="none" xmlns="http://www.w3.org/2000/svg">
<rect width="510.001" height="494.62" fill="white"/>
<path d="M179.07 397.45C179.07 421.53 179.07 445.6 179.07 469.68C184.42 469.69 189.78 469.71 195.13 469.71C197.46 469.71 197.56 469.6 197.57 467.2C197.58 461.1 197.57 455 197.58 448.9C197.58 446.49 197.66 446.42 200.01 446.41C207.53 446.4 215.04 446.41 222.56 446.41C225.2 446.41 225.21 446.4 225.21 443.84C225.22 439.58 225.22 435.31 225.21 431.05C225.21 428.61 225.14 428.55 222.62 428.54C215 428.53 207.37 428.54 199.75 428.53C197.78 428.53 197.59 428.34 197.58 426.41C197.56 423.44 197.56 420.47 197.58 417.5C197.59 415.46 197.73 415.32 199.83 415.32C207.78 415.31 215.73 415.25 223.67 415.36C225.92 415.39 227.79 414.91 229.45 413.41C229.98 412.93 230.64 412.04 231.3 412.36C231.99 412.69 231.6 413.74 231.6 414.46C231.62 432.06 231.61 449.65 231.62 467.25C231.62 469.62 231.71 469.7 234.09 469.71C238.63 469.72 243.17 469.72 247.72 469.71C250.09 469.71 250.18 469.62 250.18 467.24C250.19 461.19 250.18 455.15 250.19 449.1C250.19 447.17 250.4 446.99 252.35 446.96C254.67 446.93 256.99 446.97 259.32 446.75C270.37 445.69 278.36 440.56 282.18 429.79C282.31 429.42 282.27 428.82 282.83 428.8C283.24 428.79 283.38 429.27 283.58 429.58C286.39 433.92 290.44 436.68 295.08 438.71C298.8 440.34 302.72 441.41 306.56 442.73C308.1 443.26 309.59 443.88 310.93 444.82C311.99 445.56 312.49 446.53 312.48 447.84C312.45 450.32 311.31 451.72 308.27 452.34C303.42 453.33 298.6 453.04 293.84 451.65C291.12 450.86 288.66 449.49 286.12 448.28C285.28 447.88 284.62 447.74 284.24 448.88C282.72 453.55 281.17 458.21 279.62 462.87C279.32 463.76 279.65 464.27 280.43 464.7C285.29 467.41 290.38 469.39 295.95 470.09C297.55 470.29 299.2 470.12 300.77 470.62C302.61 470.62 304.45 470.62 306.29 470.62C308.71 470.12 311.2 470.03 313.6 469.38C322.75 466.87 328.89 461.48 330.55 451.78C330.68 451.04 330.82 450.3 330.95 449.57C330.95 448.49 330.95 447.41 330.95 446.33C330.86 445.96 330.73 445.6 330.69 445.23C330.07 439.18 327.15 434.46 322.36 430.83C319.36 428.55 315.92 427.13 312.43 425.81C308.65 424.38 304.65 423.5 301.09 421.51C299.56 420.65 298.57 419.5 298.88 417.59C299.13 416.08 300.14 415.13 302.15 414.7C304.77 414.14 307.4 414.2 310.05 414.47C314.28 414.89 318.04 416.66 321.74 418.57C322.85 419.15 323.5 419 323.9 417.72C325.34 413.2 326.83 408.69 328.32 404.19C328.61 403.32 328.6 402.66 327.64 402.19C324.59 400.7 321.62 399 318.28 398.19C316.13 397.67 313.96 397.24 311.81 396.77C308.35 396.77 304.89 396.77 301.43 396.77C300.01 397.09 298.58 397.36 297.17 397.73C289.97 399.62 284.39 403.45 281.74 410.72C281.68 410.9 281.5 411.03 281.25 411.35C280.07 409.26 278.93 407.31 277.39 405.64C271.98 399.75 265.05 397.46 257.29 397.44C231.19 397.41 205.13 397.45 179.07 397.45ZM250.18 422.19C250.18 420.41 250.19 418.64 250.18 416.86C250.17 415.89 250.54 415.32 251.6 415.34C254.4 415.39 257.21 415.14 260 415.62C261.44 415.87 262.76 416.36 263.58 417.6C265.21 420.05 265.11 422.73 264.16 425.35C263.31 427.69 261.24 428.62 258.91 428.79C256.55 428.96 254.17 428.87 251.79 428.9C250.62 428.92 250.15 428.33 250.17 427.2C250.2 425.53 250.18 423.86 250.18 422.19Z" fill="#115C99"/>
<path d="M198.53 212.69C177.77 233.45 177.77 267.1 198.53 287.87L148.69 238.03C127.93 217.27 127.93 183.62 148.69 162.85L222.79 88.7501L222.02 90.1901C242.78 69.4301 276.43 69.4301 297.2 90.1901L308.49 101.48" fill="url(#paint0_linear_3076_3230)"/>
<path d="M470.43 238.03L461.16 247.3L388.61 319.85C368.03 333.06 340.35 330.66 322.35 312.66L308.15 298.46L339.9 267.29L339.91 267.28C342.45 265.51 344.88 263.49 347.15 261.22L370.34 238.03C372.57 235.8 374.56 233.41 376.31 230.92L408.44 198.79L420.35 186.88C438.95 168.28 440.89 139.34 426.16 118.58L470.44 162.86C491.19 183.61 491.19 217.27 470.43 238.03Z" fill="url(#paint1_linear_3076_3230)"/>
<path d="M297.19 90.1998C276.43 69.4398 242.78 69.4398 222.01 90.1998L222.78 88.7598L271.96 39.5798C292.72 18.8198 326.37 18.8198 347.14 39.5798L410.72 103.88L426.14 118.58C440.87 139.34 438.93 168.29 420.33 186.88L408.42 198.79" fill="url(#paint2_linear_3076_3230)"/>
<path d="M388.6 319.86L347.14 361.32C326.38 382.08 292.73 382.08 271.96 361.32L260.37 349.73L258.17 347.53L198.52 287.88C177.76 267.12 177.76 233.47 198.52 212.7L210.42 200.8L244.31 234.64L322.35 312.68C340.34 330.66 368.03 333.06 388.6 319.86Z" fill="url(#paint3_linear_3076_3230)"/>
<g opacity="0.7">
<path d="M87.99 212.32C69.73 230.59 67.43 258.76 81.08 279.54L39.57 238.03C18.81 217.27 18.81 183.62 39.57 162.85L162.85 39.57C183.61 18.81 217.26 18.81 238.03 39.57L249.62 51.16L216.56 84.22C215.03 85.44 213.54 86.76 212.11 88.19L87.99 212.32Z" fill="url(#paint4_linear_3076_3230)"/>
<path d="M212.11 88.2005C213.54 86.7705 215.02 85.4505 216.56 84.2305L137.93 162.86C117.17 183.62 117.17 217.27 137.93 238.04L181.66 281.77C181.67 281.8 181.69 281.81 181.7 281.82C183.29 283.98 185.07 286.07 187.02 288.02L249.17 350.17L238.02 361.32C217.26 382.08 183.61 382.08 162.84 361.32L81.0701 279.55C67.4201 258.78 69.7301 230.6 87.9801 212.33" fill="url(#paint5_linear_3076_3230)"/>
</g>
<path d="M369.03 239.35L345.84 262.54C325.08 283.3 291.43 283.3 270.66 262.54L247.47 239.35C226.71 218.59 226.71 184.94 247.47 164.17L270.66 140.98C291.42 120.22 325.07 120.22 345.84 140.98L369.03 164.17C389.79 184.93 389.79 218.59 369.03 239.35Z" fill="#73A9D9"/>
<path d="M286.04 220.17L227 257.24H226.06C215.82 257.24 207.5 248.92 207.5 238.68V238.67C207.5 228.43 215.82 220.11 226.06 220.11H284.68C285.14 220.11 285.6 220.13 286.04 220.17Z" fill="white"/>
<path d="M395.45 145.55V145.56C395.45 155.8 387.15 164.12 376.89 164.12H319.21L378.25 127.04C387.87 127.74 395.45 135.77 395.45 145.55Z" fill="white"/>
<defs>
<linearGradient id="paint0_linear_3076_3230" x1="133.117" y1="181.246" x2="308.483" y2="181.246" gradientUnits="userSpaceOnUse">
<stop stop-color="#115C99"/>
<stop offset="1" stop-color="#73A9D9"/>
</linearGradient>
<linearGradient id="paint1_linear_3076_3230" x1="308.142" y1="223.408" x2="486" y2="223.408" gradientUnits="userSpaceOnUse">
<stop stop-color="#115C99"/>
<stop offset="1" stop-color="#73A9D9"/>
</linearGradient>
<linearGradient id="paint2_linear_3076_3230" x1="222.015" y1="111.394" x2="435.914" y2="111.394" gradientUnits="userSpaceOnUse">
<stop stop-color="#115C99"/>
<stop offset="1" stop-color="#73A9D9"/>
</linearGradient>
<linearGradient id="paint3_linear_3076_3230" x1="182.954" y1="288.839" x2="388.604" y2="288.839" gradientUnits="userSpaceOnUse">
<stop stop-color="#115C99"/>
<stop offset="1" stop-color="#73A9D9"/>
</linearGradient>
<linearGradient id="paint4_linear_3076_3230" x1="225.31" y1="146.879" x2="88.0381" y2="154.748" gradientUnits="userSpaceOnUse">
<stop stop-color="#666666"/>
<stop offset="1"/>
</linearGradient>
<linearGradient id="paint5_linear_3076_3230" x1="91.812" y1="235.245" x2="222.964" y2="229.999" gradientUnits="userSpaceOnUse">
<stop stop-color="#666666"/>
<stop offset="1"/>
</linearGradient>
</defs>
</svg>
